<svg xmlns="http://www.w3.org/2000/svg" version="1.1" xmlns:xlink="http://www.w3.org/1999/xlink" xmlns:svgjs="http://svgjs.com/svgjs" width="1440" height="560" preserveAspectRatio="none" viewBox="0 0 1440 560"><g mask="url(&quot;#SvgjsMask1006&quot;)" fill="none"><rect width="1440" height="560" x="0" y="0" fill="url(#SvgjsLinearGradient1007)"></rect><path d="M-69.71 339.05L-69.71 339.05" stroke="#132e65" stroke-width="1.5"></path><path d="M-69.71 339.05L-59.46 504.02" stroke="#132e65" stroke-width="1.5"></path><path d="M-69.71 339.05L49.43 504.51" stroke="#132e65" stroke-width="1.5"></path><path d="M-69.71 339.05L188.8 363.49" stroke="#132e65" stroke-width="1.5"></path><path d="M-59.46 504.02L-59.46 504.02" stroke="#132e65" stroke-width="1.5"></path><path d="M-59.46 504.02L49.43 504.51" stroke="#132e65" stroke-width="1.5"></path><path d="M-59.46 504.02L-89.79 701.24" stroke="#132e65" stroke-width="1.5"></path><path d="M-59.46 504.02L85.45 700.39" stroke="#132e65" stroke-width="1.5"></path><path d="M-89.79 701.24L-89.79 701.24" stroke="#132e65" stroke-width="1.5"></path><path d="M-89.79 701.24L85.45 700.39" stroke="#132e65" stroke-width="1.5"></path><path d="M-89.79 701.24L49.43 504.51" stroke="#132e65" stroke-width="1.5"></path><path d="M-89.79 701.24L227.24 696.32" stroke="#132e65" stroke-width="1.5"></path><path d="M-89.79 701.24L-69.71 339.05" stroke="#132e65" stroke-width="1.5"></path><path d="M49.43 504.51L49.43 504.51" stroke="#132e65" stroke-width="1.5"></path><path d="M49.43 504.51L246.61 502.85" stroke="#132e65" stroke-width="1.5"></path><path d="M49.43 504.51L188.8 363.49" stroke="#132e65" stroke-width="1.5"></path><path d="M49.43 504.51L85.45 700.39" stroke="#132e65" stroke-width="1.5"></path><path d="M85.45 700.39L85.45 700.39" stroke="#132e65" stroke-width="1.5"></path><path d="M85.45 700.39L227.24 696.32" stroke="#132e65" stroke-width="1.5"></path><path d="M85.45 700.39L246.61 502.85" stroke="#132e65" stroke-width="1.5"></path><path d="M85.45 700.39L368.99 495.49" stroke="#132e65" stroke-width="1.5"></path><path d="M188.8 363.49L188.8 363.49" stroke="#132e65" stroke-width="1.5"></path><path d="M188.8 363.49L246.61 502.85" stroke="#132e65" stroke-width="1.5"></path><path d="M188.8 363.49L379.3 408.61" stroke="#132e65" stroke-width="1.5"></path><path d="M246.61 502.85L246.61 502.85" stroke="#132e65" stroke-width="1.5"></path><path d="M246.61 502.85L368.99 495.49" stroke="#132e65" stroke-width="1.5"></path><path d="M227.24 696.32L227.24 696.32" stroke="#132e65" stroke-width="1.5"></path><path d="M227.24 696.32L246.61 502.85" stroke="#132e65" stroke-width="1.5"></path><path d="M227.24 696.32L368.99 495.49" stroke="#132e65" stroke-width="1.5"></path><path d="M379.3 408.61L379.3 408.61" stroke="#132e65" stroke-width="1.5"></path><path d="M379.3 408.61L368.99 495.49" stroke="#132e65" stroke-width="1.5"></path><path d="M379.3 408.61L504.09 509.18" stroke="#132e65" stroke-width="1.5"></path><path d="M379.3 408.61L246.61 502.85" stroke="#132e65" stroke-width="1.5"></path><path d="M368.99 495.49L368.99 495.49" stroke="#132e65" stroke-width="1.5"></path><path d="M368.99 495.49L504.09 509.18" stroke="#132e65" stroke-width="1.5"></path><path d="M504.09 509.18L504.09 509.18" stroke="#132e65" stroke-width="1.5"></path><path d="M504.09 509.18L643.58 545.67" stroke="#132e65" stroke-width="1.5"></path><path d="M561.95 683.06L561.95 683.06" stroke="#132e65" stroke-width="1.5"></path><path d="M561.95 683.06L694.67 699.55" stroke="#132e65" stroke-width="1.5"></path><path d="M561.95 683.06L643.58 545.67" stroke="#132e65" stroke-width="1.5"></path><path d="M561.95 683.06L504.09 509.18" stroke="#132e65" stroke-width="1.5"></path><path d="M561.95 683.06L368.99 495.49" stroke="#132e65" stroke-width="1.5"></path><path d="M657.91 346.65L657.91 346.65" stroke="#132e65" stroke-width="1.5"></path><path d="M657.91 346.65L813.79 344.7" stroke="#132e65" stroke-width="1.5"></path><path d="M657.91 346.65L643.58 545.67" stroke="#132e65" stroke-width="1.5"></path><path d="M657.91 346.65L842.76 221.89" stroke="#132e65" stroke-width="1.5"></path><path d="M657.91 346.65L504.09 509.18" stroke="#132e65" stroke-width="1.5"></path><path d="M643.58 545.67L643.58 545.67" stroke="#132e65" stroke-width="1.5"></path><path d="M643.58 545.67L694.67 699.55" stroke="#132e65" stroke-width="1.5"></path><path d="M694.67 699.55L694.67 699.55" stroke="#132e65" stroke-width="1.5"></path><path d="M694.67 699.55L837.18 652.49" stroke="#132e65" stroke-width="1.5"></path><path d="M694.67 699.55L504.09 509.18" stroke="#132e65" stroke-width="1.5"></path><path d="M853.49 57L853.49 57" stroke="#132e65" stroke-width="1.5"></path><path d="M853.49 57L944.94 76.47" stroke="#132e65" stroke-width="1.5"></path><path d="M853.49 57L842.76 221.89" stroke="#132e65" stroke-width="1.5"></path><path d="M853.49 57L1011.61 -61.48" stroke="#132e65" stroke-width="1.5"></path><path d="M853.49 57L1000.52 261.23" stroke="#132e65" stroke-width="1.5"></path><path d="M842.76 221.89L842.76 221.89" stroke="#132e65" stroke-width="1.5"></path><path d="M842.76 221.89L813.79 344.7" stroke="#132e65" stroke-width="1.5"></path><path d="M842.76 221.89L1000.52 261.23" stroke="#132e65" stroke-width="1.5"></path><path d="M842.76 221.89L944.94 76.47" stroke="#132e65" stroke-width="1.5"></path><path d="M813.79 344.7L813.79 344.7" stroke="#132e65" stroke-width="1.5"></path><path d="M813.79 344.7L1008.18 375.65" stroke="#132e65" stroke-width="1.5"></path><path d="M837.18 652.49L837.18 652.49" stroke="#132e65" stroke-width="1.5"></path><path d="M837.18 652.49L997.98 677.23" stroke="#132e65" stroke-width="1.5"></path><path d="M1011.61 -61.48L1011.61 -61.48" stroke="#132e65" stroke-width="1.5"></path><path d="M1011.61 -61.48L1128.62 -53.96" stroke="#132e65" stroke-width="1.5"></path><path d="M1011.61 -61.48L944.94 76.47" stroke="#132e65" stroke-width="1.5"></path><path d="M1011.61 -61.48L1119.31 68.95" stroke="#132e65" stroke-width="1.5"></path><path d="M944.94 76.47L944.94 76.47" stroke="#132e65" stroke-width="1.5"></path><path d="M944.94 76.47L1119.31 68.95" stroke="#132e65" stroke-width="1.5"></path><path d="M944.94 76.47L1000.52 261.23" stroke="#132e65" stroke-width="1.5"></path><path d="M944.94 76.47L1128.62 -53.96" stroke="#132e65" stroke-width="1.5"></path><path d="M1000.52 261.23L1000.52 261.23" stroke="#132e65" stroke-width="1.5"></path><path d="M1000.52 261.23L1008.18 375.65" stroke="#132e65" stroke-width="1.5"></path><path d="M1000.52 261.23L1133.59 245.01" stroke="#132e65" stroke-width="1.5"></path><path d="M1008.18 375.65L1008.18 375.65" stroke="#132e65" stroke-width="1.5"></path><path d="M1008.18 375.65L997.54 489.46" stroke="#132e65" stroke-width="1.5"></path><path d="M1008.18 375.65L1151.62 342.09" stroke="#132e65" stroke-width="1.5"></path><path d="M997.54 489.46L997.54 489.46" stroke="#132e65" stroke-width="1.5"></path><path d="M997.54 489.46L1094.03 531.26" stroke="#132e65" stroke-width="1.5"></path><path d="M997.54 489.46L997.98 677.23" stroke="#132e65" stroke-width="1.5"></path><path d="M997.54 489.46L1151.62 342.09" stroke="#132e65" stroke-width="1.5"></path><path d="M997.54 489.46L1000.52 261.23" stroke="#132e65" stroke-width="1.5"></path><path d="M997.54 489.46L837.18 652.49" stroke="#132e65" stroke-width="1.5"></path><path d="M997.98 677.23L997.98 677.23" stroke="#132e65" stroke-width="1.5"></path><path d="M997.98 677.23L1105.48 691.4" stroke="#132e65" stroke-width="1.5"></path><path d="M997.98 677.23L1094.03 531.26" stroke="#132e65" stroke-width="1.5"></path><path d="M997.98 677.23L1008.18 375.65" stroke="#132e65" stroke-width="1.5"></path><path d="M1128.62 -53.96L1128.62 -53.96" stroke="#132e65" stroke-width="1.5"></path><path d="M1128.62 -53.96L1119.31 68.95" stroke="#132e65" stroke-width="1.5"></path><path d="M1128.62 -53.96L1287.89 -100.89" stroke="#132e65" stroke-width="1.5"></path><path d="M1119.31 68.95L1119.31 68.95" stroke="#132e65" stroke-width="1.5"></path><path d="M1119.31 68.95L1256.47 86.75" stroke="#132e65" stroke-width="1.5"></path><path d="M1119.31 68.95L1133.59 245.01" stroke="#132e65" stroke-width="1.5"></path><path d="M1119.31 68.95L1000.52 261.23" stroke="#132e65" stroke-width="1.5"></path><path d="M1133.59 245.01L1133.59 245.01" stroke="#132e65" stroke-width="1.5"></path><path d="M1133.59 245.01L1151.62 342.09" stroke="#132e65" stroke-width="1.5"></path><path d="M1133.59 245.01L1240.58 370.68" stroke="#132e65" stroke-width="1.5"></path><path d="M1151.62 342.09L1151.62 342.09" stroke="#132e65" stroke-width="1.5"></path><path d="M1151.62 342.09L1240.58 370.68" stroke="#132e65" stroke-width="1.5"></path><path d="M1094.03 531.26L1094.03 531.26" stroke="#132e65" stroke-width="1.5"></path><path d="M1094.03 531.26L1105.48 691.4" stroke="#132e65" stroke-width="1.5"></path><path d="M1105.48 691.4L1105.48 691.4" stroke="#132e65" stroke-width="1.5"></path><path d="M1105.48 691.4L1307.99 653.11" stroke="#132e65" stroke-width="1.5"></path><path d="M1105.48 691.4L997.54 489.46" stroke="#132e65" stroke-width="1.5"></path><path d="M1287.89 -100.89L1287.89 -100.89" stroke="#132e65" stroke-width="1.5"></path><path d="M1287.89 -100.89L1388.7 -54.65" stroke="#132e65" stroke-width="1.5"></path><path d="M1287.89 -100.89L1256.47 86.75" stroke="#132e65" stroke-width="1.5"></path><path d="M1287.89 -100.89L1404.14 58.24" stroke="#132e65" stroke-width="1.5"></path><path d="M1256.47 86.75L1256.47 86.75" stroke="#132e65" stroke-width="1.5"></path><path d="M1256.47 86.75L1404.14 58.24" stroke="#132e65" stroke-width="1.5"></path><path d="M1256.47 86.75L1128.62 -53.96" stroke="#132e65" stroke-width="1.5"></path><path d="M1256.47 86.75L1388.7 -54.65" stroke="#132e65" stroke-width="1.5"></path><path d="M1256.47 86.75L1133.59 245.01" stroke="#132e65" stroke-width="1.5"></path><path d="M1240.58 370.68L1240.58 370.68" stroke="#132e65" stroke-width="1.5"></path><path d="M1286.67 551L1286.67 551" stroke="#132e65" stroke-width="1.5"></path><path d="M1286.67 551L1307.99 653.11" stroke="#132e65" stroke-width="1.5"></path><path d="M1286.67 551L1400.68 526.57" stroke="#132e65" stroke-width="1.5"></path><path d="M1286.67 551L1240.58 370.68" stroke="#132e65" stroke-width="1.5"></path><path d="M1307.99 653.11L1307.99 653.11" stroke="#132e65" stroke-width="1.5"></path><path d="M1307.99 653.11L1440.62 659.45" stroke="#132e65" stroke-width="1.5"></path><path d="M1307.99 653.11L1400.68 526.57" stroke="#132e65" stroke-width="1.5"></path><path d="M1388.7 -54.65L1388.7 -54.65" stroke="#132e65" stroke-width="1.5"></path><path d="M1404.14 58.24L1404.14 58.24" stroke="#132e65" stroke-width="1.5"></path><path d="M1404.14 58.24L1388.7 -54.65" stroke="#132e65" stroke-width="1.5"></path><path d="M1436.02 411.85L1436.02 411.85" stroke="#132e65" stroke-width="1.5"></path><path d="M1436.02 411.85L1400.68 526.57" stroke="#132e65" stroke-width="1.5"></path><path d="M1400.68 526.57L1400.68 526.57" stroke="#132e65" stroke-width="1.5"></path><path d="M1400.68 526.57L1440.62 659.45" stroke="#132e65" stroke-width="1.5"></path><path d="M1400.68 526.57L1547.57 501.89" stroke="#132e65" stroke-width="1.5"></path><path d="M1440.62 659.45L1440.62 659.45" stroke="#132e65" stroke-width="1.5"></path><path d="M1440.62 659.45L1564.7 692.44" stroke="#132e65" stroke-width="1.5"></path><path d="M1539.04 -84.27L1539.04 -84.27" stroke="#132e65" stroke-width="1.5"></path><path d="M1539.04 -84.27L1388.7 -54.65" stroke="#132e65" stroke-width="1.5"></path><path d="M1539.04 -84.27L1580.18 69.46" stroke="#132e65" stroke-width="1.5"></path><path d="M1539.04 -84.27L1404.14 58.24" stroke="#132e65" stroke-width="1.5"></path><path d="M1539.04 -84.27L1287.89 -100.89" stroke="#132e65" stroke-width="1.5"></path><path d="M1539.04 -84.27L1609.6 238.16" stroke="#132e65" stroke-width="1.5"></path><path d="M1539.04 -84.27L1256.47 86.75" stroke="#132e65" stroke-width="1.5"></path><path d="M1580.18 69.46L1580.18 69.46" stroke="#132e65" stroke-width="1.5"></path><path d="M1580.18 69.46L1609.6 238.16" stroke="#132e65" stroke-width="1.5"></path><path d="M1580.18 69.46L1404.14 58.24" stroke="#132e65" stroke-width="1.5"></path><path d="M1580.18 69.46L1388.7 -54.65" stroke="#132e65" stroke-width="1.5"></path><path d="M1609.6 238.16L1609.6 238.16" stroke="#132e65" stroke-width="1.5"></path><path d="M1609.6 238.16L1562.02 400.91" stroke="#132e65" stroke-width="1.5"></path><path d="M1609.6 238.16L1436.02 411.85" stroke="#132e65" stroke-width="1.5"></path><path d="M1609.6 238.16L1547.57 501.89" stroke="#132e65" stroke-width="1.5"></path><path d="M1609.6 238.16L1404.14 58.24" stroke="#132e65" stroke-width="1.5"></path><path d="M1562.02 400.91L1562.02 400.91" stroke="#132e65" stroke-width="1.5"></path><path d="M1562.02 400.91L1547.57 501.89" stroke="#132e65" stroke-width="1.5"></path><path d="M1562.02 400.91L1436.02 411.85" stroke="#132e65" stroke-width="1.5"></path><path d="M1547.57 501.89L1547.57 501.89" stroke="#132e65" stroke-width="1.5"></path><path d="M1547.57 501.89L1436.02 411.85" stroke="#132e65" stroke-width="1.5"></path><path d="M1564.7 692.44L1564.7 692.44" stroke="#132e65" stroke-width="1.5"></path><path d="M1564.7 692.44L1547.57 501.89" stroke="#132e65" stroke-width="1.5"></path><circle r="5" cx="-69.71" cy="339.05" fill="#132e65"></circle><circle r="5" cx="-59.46" cy="504.02" fill="#132e65"></circle><circle r="5" cx="-89.79" cy="701.24" fill="#132e65"></circle><circle r="5" cx="49.43" cy="504.51" fill="#132e65"></circle><circle r="5" cx="85.45" cy="700.39" fill="#132e65"></circle><circle r="5" cx="188.8" cy="363.49" fill="#132e65"></circle><circle r="5" cx="246.61" cy="502.85" fill="#132e65"></circle><circle r="5" cx="227.24" cy="696.32" fill="#132e65"></circle><circle r="5" cx="379.3" cy="408.61" fill="#132e65"></circle><circle r="5" cx="368.99" cy="495.49" fill="#132e65"></circle><circle r="5" cx="504.09" cy="509.18" fill="#132e65"></circle><circle r="5" cx="561.95" cy="683.06" fill="#132e65"></circle><circle r="5" cx="657.91" cy="346.65" fill="#132e65"></circle><circle r="5" cx="643.58" cy="545.67" fill="#132e65"></circle><circle r="5" cx="694.67" cy="699.55" fill="#132e65"></circle><circle r="5" cx="853.49" cy="57" fill="#132e65"></circle><circle r="5" cx="842.76" cy="221.89" fill="#132e65"></circle><circle r="5" cx="813.79" cy="344.7" fill="#132e65"></circle><circle r="5" cx="837.18" cy="652.49" fill="#132e65"></circle><circle r="5" cx="1011.61" cy="-61.48" fill="#132e65"></circle><circle r="5" cx="944.94" cy="76.47" fill="#132e65"></circle><circle r="5" cx="1000.52" cy="261.23" fill="#132e65"></circle><circle r="5" cx="1008.18" cy="375.65" fill="#132e65"></circle><circle r="5" cx="997.54" cy="489.46" fill="#132e65"></circle><circle r="5" cx="997.98" cy="677.23" fill="#132e65"></circle><circle r="5" cx="1128.62" cy="-53.96" fill="#132e65"></circle><circle r="5" cx="1119.31" cy="68.95" fill="#132e65"></circle><circle r="5" cx="1133.59" cy="245.01" fill="#132e65"></circle><circle r="5" cx="1151.62" cy="342.09" fill="#132e65"></circle><circle r="5" cx="1094.03" cy="531.26" fill="#132e65"></circle><circle r="5" cx="1105.48" cy="691.4" fill="#132e65"></circle><circle r="5" cx="1287.89" cy="-100.89" fill="#132e65"></circle><circle r="5" cx="1256.47" cy="86.75" fill="#132e65"></circle><circle r="5" cx="1240.58" cy="370.68" fill="#132e65"></circle><circle r="5" cx="1286.67" cy="551" fill="#132e65"></circle><circle r="5" cx="1307.99" cy="653.11" fill="#132e65"></circle><circle r="5" cx="1388.7" cy="-54.65" fill="#132e65"></circle><circle r="5" cx="1404.14" cy="58.24" fill="#132e65"></circle><circle r="5" cx="1436.02" cy="411.85" fill="#132e65"></circle><circle r="5" cx="1400.68" cy="526.57" fill="#132e65"></circle><circle r="5" cx="1440.62" cy="659.45" fill="#132e65"></circle><circle r="5" cx="1539.04" cy="-84.27" fill="#132e65"></circle><circle r="5" cx="1580.18" cy="69.46" fill="#132e65"></circle><circle r="5" cx="1609.6" cy="238.16" fill="#132e65"></circle><circle r="5" cx="1562.02" cy="400.91" fill="#132e65"></circle><circle r="5" cx="1547.57" cy="501.89" fill="#132e65"></circle><circle r="5" cx="1564.7" cy="692.44" fill="#132e65"></circle><path d="M-81.73 512.8L-81.73 512.8" stroke="hsl(228.5, 77.2%, 51.5%)" stroke-width="1.5"></path><path d="M-81.73 512.8L111.65 513.11" stroke="hsl(228.5, 77.2%, 51.5%)" stroke-width="1.5"></path><path d="M-81.73 512.8L50.64 701.52" stroke="hsl(228.5, 77.2%, 51.5%)" stroke-width="1.5"></path><path d="M-81.73 512.8L251.67 521.05" stroke="hsl(228.5, 77.2%, 51.5%)" stroke-width="1.5"></path><path d="M-81.73 512.8L258.02 668.18" stroke="hsl(228.5, 77.2%, 51.5%)" stroke-width="1.5"></path><path d="M-81.73 512.8L367.83 521.25" stroke="hsl(228.5, 77.2%, 51.5%)" stroke-width="1.5"></path><path d="M111.65 513.11L111.65 513.11" stroke="hsl(228.5, 77.2%, 51.5%)" stroke-width="1.5"></path><path d="M111.65 513.11L251.67 521.05" stroke="hsl(228.5, 77.2%, 51.5%)" stroke-width="1.5"></path><path d="M50.64 701.52L50.64 701.52" stroke="hsl(228.5, 77.2%, 51.5%)" stroke-width="1.5"></path><path d="M50.64 701.52L111.65 513.11" stroke="hsl(228.5, 77.2%, 51.5%)" stroke-width="1.5"></path><path d="M50.64 701.52L258.02 668.18" stroke="hsl(228.5, 77.2%, 51.5%)" stroke-width="1.5"></path><path d="M50.64 701.52L251.67 521.05" stroke="hsl(228.5, 77.2%, 51.5%)" stroke-width="1.5"></path><path d="M258.02 668.18L258.02 668.18" stroke="hsl(228.5, 77.2%, 51.5%)" stroke-width="1.5"></path><path d="M258.02 668.18L387.91 669.03" stroke="hsl(228.5, 77.2%, 51.5%)" stroke-width="1.5"></path><path d="M258.02 668.18L251.67 521.05" stroke="hsl(228.5, 77.2%, 51.5%)" stroke-width="1.5"></path><path d="M258.02 668.18L367.83 521.25" stroke="hsl(228.5, 77.2%, 51.5%)" stroke-width="1.5"></path><path d="M367.83 521.25L367.83 521.25" stroke="hsl(228.5, 77.2%, 51.5%)" stroke-width="1.5"></path><path d="M367.83 521.25L251.67 521.05" stroke="hsl(228.5, 77.2%, 51.5%)" stroke-width="1.5"></path><path d="M367.83 521.25L387.91 669.03" stroke="hsl(228.5, 77.2%, 51.5%)" stroke-width="1.5"></path><path d="M367.83 521.25L549.51 555.46" stroke="hsl(228.5, 77.2%, 51.5%)" stroke-width="1.5"></path><path d="M367.83 521.25L521.79 662.01" stroke="hsl(228.5, 77.2%, 51.5%)" stroke-width="1.5"></path><path d="M367.83 521.25L111.65 513.11" stroke="hsl(228.5, 77.2%, 51.5%)" stroke-width="1.5"></path><path d="M549.51 555.46L549.51 555.46" stroke="hsl(228.5, 77.2%, 51.5%)" stroke-width="1.5"></path><path d="M549.51 555.46L521.79 662.01" stroke="hsl(228.5, 77.2%, 51.5%)" stroke-width="1.5"></path><path d="M549.51 555.46L667.17 509.64" stroke="hsl(228.5, 77.2%, 51.5%)" stroke-width="1.5"></path><path d="M549.51 555.46L668.84 696.11" stroke="hsl(228.5, 77.2%, 51.5%)" stroke-width="1.5"></path><path d="M521.79 662.01L521.79 662.01" stroke="hsl(228.5, 77.2%, 51.5%)" stroke-width="1.5"></path><path d="M521.79 662.01L387.91 669.03" stroke="hsl(228.5, 77.2%, 51.5%)" stroke-width="1.5"></path><path d="M521.79 662.01L668.84 696.11" stroke="hsl(228.5, 77.2%, 51.5%)" stroke-width="1.5"></path><path d="M1157.15 -97.18L1157.15 -97.18" stroke="hsl(228.5, 77.2%, 51.5%)" stroke-width="1.5"></path><path d="M1157.15 -97.18L1249.17 -67.15" stroke="hsl(228.5, 77.2%, 51.5%)" stroke-width="1.5"></path><path d="M1157.15 -97.18L1268.04 61.84" stroke="hsl(228.5, 77.2%, 51.5%)" stroke-width="1.5"></path><path d="M1157.15 -97.18L1414.79 -58.16" stroke="hsl(228.5, 77.2%, 51.5%)" stroke-width="1.5"></path><path d="M1157.15 -97.18L1430.4 93.18" stroke="hsl(228.5, 77.2%, 51.5%)" stroke-width="1.5"></path><path d="M1157.15 -97.18L1291.61 220.15" stroke="hsl(228.5, 77.2%, 51.5%)" stroke-width="1.5"></path><path d="M1157.15 -97.18L981.14 242.19" stroke="hsl(228.5, 77.2%, 51.5%)" stroke-width="1.5"></path><path d="M1268.04 61.84L1268.04 61.84" stroke="hsl(228.5, 77.2%, 51.5%)" stroke-width="1.5"></path><path d="M1268.04 61.84L1249.17 -67.15" stroke="hsl(228.5, 77.2%, 51.5%)" stroke-width="1.5"></path><path d="M1268.04 61.84L1291.61 220.15" stroke="hsl(228.5, 77.2%, 51.5%)" stroke-width="1.5"></path><path d="M1268.04 61.84L1430.4 93.18" stroke="hsl(228.5, 77.2%, 51.5%)" stroke-width="1.5"></path><path d="M1268.04 61.84L1414.79 -58.16" stroke="hsl(228.5, 77.2%, 51.5%)" stroke-width="1.5"></path><path d="M1608.57 39.74L1608.57 39.74" stroke="hsl(228.5, 77.2%, 51.5%)" stroke-width="1.5"></path><path d="M1608.57 39.74L1537.67 -57.72" stroke="hsl(228.5, 77.2%, 51.5%)" stroke-width="1.5"></path><path d="M1608.57 39.74L1579.5 208.15" stroke="hsl(228.5, 77.2%, 51.5%)" stroke-width="1.5"></path><path d="M1608.57 39.74L1430.4 93.18" stroke="hsl(228.5, 77.2%, 51.5%)" stroke-width="1.5"></path><path d="M1608.57 39.74L1414.79 -58.16" stroke="hsl(228.5, 77.2%, 51.5%)" stroke-width="1.5"></path><path d="M1608.57 39.74L1434.66 258.96" stroke="hsl(228.5, 77.2%, 51.5%)" stroke-width="1.5"></path><path d="M1608.57 39.74L1268.04 61.84" stroke="hsl(228.5, 77.2%, 51.5%)" stroke-width="1.5"></path><path d="M251.67 521.05L251.67 521.05" stroke="hsl(228.5, 77.2%, 51.5%)" stroke-width="1.5"></path><path d="M387.91 669.03L387.91 669.03" stroke="hsl(228.5, 77.2%, 51.5%)" stroke-width="1.5"></path><path d="M387.91 669.03L549.51 555.46" stroke="hsl(228.5, 77.2%, 51.5%)" stroke-width="1.5"></path><path d="M387.91 669.03L251.67 521.05" stroke="hsl(228.5, 77.2%, 51.5%)" stroke-width="1.5"></path><path d="M667.17 509.64L667.17 509.64" stroke="hsl(228.5, 77.2%, 51.5%)" stroke-width="1.5"></path><path d="M667.17 509.64L834.39 511.4" stroke="hsl(228.5, 77.2%, 51.5%)" stroke-width="1.5"></path><path d="M668.84 696.11L668.84 696.11" stroke="hsl(228.5, 77.2%, 51.5%)" stroke-width="1.5"></path><path d="M668.84 696.11L831.31 666.26" stroke="hsl(228.5, 77.2%, 51.5%)" stroke-width="1.5"></path><path d="M668.84 696.11L667.17 509.64" stroke="hsl(228.5, 77.2%, 51.5%)" stroke-width="1.5"></path><path d="M668.84 696.11L834.39 511.4" stroke="hsl(228.5, 77.2%, 51.5%)" stroke-width="1.5"></path><path d="M822.53 408.77L822.53 408.77" stroke="hsl(228.5, 77.2%, 51.5%)" stroke-width="1.5"></path><path d="M822.53 408.77L834.39 511.4" stroke="hsl(228.5, 77.2%, 51.5%)" stroke-width="1.5"></path><path d="M822.53 408.77L940.61 492.44" stroke="hsl(228.5, 77.2%, 51.5%)" stroke-width="1.5"></path><path d="M822.53 408.77L974.19 341.91" stroke="hsl(228.5, 77.2%, 51.5%)" stroke-width="1.5"></path><path d="M834.39 511.4L834.39 511.4" stroke="hsl(228.5, 77.2%, 51.5%)" stroke-width="1.5"></path><path d="M834.39 511.4L940.61 492.44" stroke="hsl(228.5, 77.2%, 51.5%)" stroke-width="1.5"></path><path d="M834.39 511.4L831.31 666.26" stroke="hsl(228.5, 77.2%, 51.5%)" stroke-width="1.5"></path><path d="M834.39 511.4L974.19 341.91" stroke="hsl(228.5, 77.2%, 51.5%)" stroke-width="1.5"></path><path d="M831.31 666.26L831.31 666.26" stroke="hsl(228.5, 77.2%, 51.5%)" stroke-width="1.5"></path><path d="M831.31 666.26L993.91 675.56" stroke="hsl(228.5, 77.2%, 51.5%)" stroke-width="1.5"></path><path d="M831.31 666.26L940.61 492.44" stroke="hsl(228.5, 77.2%, 51.5%)" stroke-width="1.5"></path><path d="M831.31 666.26L667.17 509.64" stroke="hsl(228.5, 77.2%, 51.5%)" stroke-width="1.5"></path><path d="M831.31 666.26L822.53 408.77" stroke="hsl(228.5, 77.2%, 51.5%)" stroke-width="1.5"></path><path d="M981.14 242.19L981.14 242.19" stroke="hsl(228.5, 77.2%, 51.5%)" stroke-width="1.5"></path><path d="M981.14 242.19L974.19 341.91" stroke="hsl(228.5, 77.2%, 51.5%)" stroke-width="1.5"></path><path d="M981.14 242.19L1154.7 382.78" stroke="hsl(228.5, 77.2%, 51.5%)" stroke-width="1.5"></path><path d="M981.14 242.19L822.53 408.77" stroke="hsl(228.5, 77.2%, 51.5%)" stroke-width="1.5"></path><path d="M974.19 341.91L974.19 341.91" stroke="hsl(228.5, 77.2%, 51.5%)" stroke-width="1.5"></path><path d="M974.19 341.91L940.61 492.44" stroke="hsl(228.5, 77.2%, 51.5%)" stroke-width="1.5"></path><path d="M974.19 341.91L1154.7 382.78" stroke="hsl(228.5, 77.2%, 51.5%)" stroke-width="1.5"></path><path d="M940.61 492.44L940.61 492.44" stroke="hsl(228.5, 77.2%, 51.5%)" stroke-width="1.5"></path><path d="M940.61 492.44L993.91 675.56" stroke="hsl(228.5, 77.2%, 51.5%)" stroke-width="1.5"></path><path d="M940.61 492.44L1153.88 537.73" stroke="hsl(228.5, 77.2%, 51.5%)" stroke-width="1.5"></path><path d="M993.91 675.56L993.91 675.56" stroke="hsl(228.5, 77.2%, 51.5%)" stroke-width="1.5"></path><path d="M993.91 675.56L1155.41 704.52" stroke="hsl(228.5, 77.2%, 51.5%)" stroke-width="1.5"></path><path d="M1154.7 382.78L1154.7 382.78" stroke="hsl(228.5, 77.2%, 51.5%)" stroke-width="1.5"></path><path d="M1154.7 382.78L1273.27 380.69" stroke="hsl(228.5, 77.2%, 51.5%)" stroke-width="1.5"></path><path d="M1154.7 382.78L1153.88 537.73" stroke="hsl(228.5, 77.2%, 51.5%)" stroke-width="1.5"></path><path d="M1154.7 382.78L1283.38 494.3" stroke="hsl(228.5, 77.2%, 51.5%)" stroke-width="1.5"></path><path d="M1154.7 382.78L1291.61 220.15" stroke="hsl(228.5, 77.2%, 51.5%)" stroke-width="1.5"></path><path d="M1153.88 537.73L1153.88 537.73" stroke="hsl(228.5, 77.2%, 51.5%)" stroke-width="1.5"></path><path d="M1153.88 537.73L1283.38 494.3" stroke="hsl(228.5, 77.2%, 51.5%)" stroke-width="1.5"></path><path d="M1153.88 537.73L1155.41 704.52" stroke="hsl(228.5, 77.2%, 51.5%)" stroke-width="1.5"></path><path d="M1155.41 704.52L1155.41 704.52" stroke="hsl(228.5, 77.2%, 51.5%)" stroke-width="1.5"></path><path d="M1155.41 704.52L1283.38 494.3" stroke="hsl(228.5, 77.2%, 51.5%)" stroke-width="1.5"></path><path d="M1249.17 -67.15L1249.17 -67.15" stroke="hsl(228.5, 77.2%, 51.5%)" stroke-width="1.5"></path><path d="M1249.17 -67.15L1414.79 -58.16" stroke="hsl(228.5, 77.2%, 51.5%)" stroke-width="1.5"></path><path d="M1249.17 -67.15L1430.4 93.18" stroke="hsl(228.5, 77.2%, 51.5%)" stroke-width="1.5"></path><path d="M1249.17 -67.15L1537.67 -57.72" stroke="hsl(228.5, 77.2%, 51.5%)" stroke-width="1.5"></path><path d="M1291.61 220.15L1291.61 220.15" stroke="hsl(228.5, 77.2%, 51.5%)" stroke-width="1.5"></path><path d="M1291.61 220.15L1434.66 258.96" stroke="hsl(228.5, 77.2%, 51.5%)" stroke-width="1.5"></path><path d="M1291.61 220.15L1273.27 380.69" stroke="hsl(228.5, 77.2%, 51.5%)" stroke-width="1.5"></path><path d="M1291.61 220.15L1399.82 356.76" stroke="hsl(228.5, 77.2%, 51.5%)" stroke-width="1.5"></path><path d="M1291.61 220.15L1430.4 93.18" stroke="hsl(228.5, 77.2%, 51.5%)" stroke-width="1.5"></path><path d="M1273.27 380.69L1273.27 380.69" stroke="hsl(228.5, 77.2%, 51.5%)" stroke-width="1.5"></path><path d="M1273.27 380.69L1283.38 494.3" stroke="hsl(228.5, 77.2%, 51.5%)" stroke-width="1.5"></path><path d="M1273.27 380.69L1399.82 356.76" stroke="hsl(228.5, 77.2%, 51.5%)" stroke-width="1.5"></path><path d="M1273.27 380.69L1153.88 537.73" stroke="hsl(228.5, 77.2%, 51.5%)" stroke-width="1.5"></path><path d="M1273.27 380.69L1434.66 258.96" stroke="hsl(228.5, 77.2%, 51.5%)" stroke-width="1.5"></path><path d="M1283.38 494.3L1283.38 494.3" stroke="hsl(228.5, 77.2%, 51.5%)" stroke-width="1.5"></path><path d="M1283.38 494.3L1438.89 530.34" stroke="hsl(228.5, 77.2%, 51.5%)" stroke-width="1.5"></path><path d="M1414.79 -58.16L1414.79 -58.16" stroke="hsl(228.5, 77.2%, 51.5%)" stroke-width="1.5"></path><path d="M1414.79 -58.16L1537.67 -57.72" stroke="hsl(228.5, 77.2%, 51.5%)" stroke-width="1.5"></path><path d="M1414.79 -58.16L1430.4 93.18" stroke="hsl(228.5, 77.2%, 51.5%)" stroke-width="1.5"></path><path d="M1430.4 93.18L1430.4 93.18" stroke="hsl(228.5, 77.2%, 51.5%)" stroke-width="1.5"></path><path d="M1430.4 93.18L1434.66 258.96" stroke="hsl(228.5, 77.2%, 51.5%)" stroke-width="1.5"></path><path d="M1430.4 93.18L1537.67 -57.72" stroke="hsl(228.5, 77.2%, 51.5%)" stroke-width="1.5"></path><path d="M1434.66 258.96L1434.66 258.96" stroke="hsl(228.5, 77.2%, 51.5%)" stroke-width="1.5"></path><path d="M1434.66 258.96L1399.82 356.76" stroke="hsl(228.5, 77.2%, 51.5%)" stroke-width="1.5"></path><path d="M1434.66 258.96L1579.5 208.15" stroke="hsl(228.5, 77.2%, 51.5%)" stroke-width="1.5"></path><path d="M1434.66 258.96L1581.82 382.02" stroke="hsl(228.5, 77.2%, 51.5%)" stroke-width="1.5"></path><path d="M1399.82 356.76L1399.82 356.76" stroke="hsl(228.5, 77.2%, 51.5%)" stroke-width="1.5"></path><path d="M1399.82 356.76L1438.89 530.34" stroke="hsl(228.5, 77.2%, 51.5%)" stroke-width="1.5"></path><path d="M1399.82 356.76L1283.38 494.3" stroke="hsl(228.5, 77.2%, 51.5%)" stroke-width="1.5"></path><path d="M1438.89 530.34L1438.89 530.34" stroke="hsl(228.5, 77.2%, 51.5%)" stroke-width="1.5"></path><path d="M1438.89 530.34L1550.98 548.61" stroke="hsl(228.5, 77.2%, 51.5%)" stroke-width="1.5"></path><path d="M1537.67 -57.72L1537.67 -57.72" stroke="hsl(228.5, 77.2%, 51.5%)" stroke-width="1.5"></path><path d="M1537.67 -57.72L1579.5 208.15" stroke="hsl(228.5, 77.2%, 51.5%)" stroke-width="1.5"></path><path d="M1579.5 208.15L1579.5 208.15" stroke="hsl(228.5, 77.2%, 51.5%)" stroke-width="1.5"></path><path d="M1579.5 208.15L1581.82 382.02" stroke="hsl(228.5, 77.2%, 51.5%)" stroke-width="1.5"></path><path d="M1581.82 382.02L1581.82 382.02" stroke="hsl(228.5, 77.2%, 51.5%)" stroke-width="1.5"></path><path d="M1581.82 382.02L1550.98 548.61" stroke="hsl(228.5, 77.2%, 51.5%)" stroke-width="1.5"></path><path d="M1581.82 382.02L1399.82 356.76" stroke="hsl(228.5, 77.2%, 51.5%)" stroke-width="1.5"></path><path d="M1550.98 548.61L1550.98 548.61" stroke="hsl(228.5, 77.2%, 51.5%)" stroke-width="1.5"></path><path d="M1550.98 548.61L1609.46 655.83" stroke="hsl(228.5, 77.2%, 51.5%)" stroke-width="1.5"></path><path d="M1550.98 548.61L1399.82 356.76" stroke="hsl(228.5, 77.2%, 51.5%)" stroke-width="1.5"></path><path d="M1609.46 655.83L1609.46 655.83" stroke="hsl(228.5, 77.2%, 51.5%)" stroke-width="1.5"></path><path d="M1609.46 655.83L1438.89 530.34" stroke="hsl(228.5, 77.2%, 51.5%)" stroke-width="1.5"></path><path d="M1609.46 655.83L1581.82 382.02" stroke="hsl(228.5, 77.2%, 51.5%)" stroke-width="1.5"></path><path d="M1609.46 655.83L1283.38 494.3" stroke="hsl(228.5, 77.2%, 51.5%)" stroke-width="1.5"></path><path d="M1609.46 655.83L1399.82 356.76" stroke="hsl(228.5, 77.2%, 51.5%)" stroke-width="1.5"></path><circle r="25" cx="-81.73" cy="512.8" fill="url(#SvgjsRadialGradient1008)"></circle><circle r="25" cx="111.65" cy="513.11" fill="url(#SvgjsRadialGradient1008)"></circle><circle r="25" cx="50.64" cy="701.52" fill="url(#SvgjsRadialGradient1008)"></circle><circle r="25" cx="258.02" cy="668.18" fill="url(#SvgjsRadialGradient1008)"></circle><circle r="25" cx="367.83" cy="521.25" fill="url(#SvgjsRadialGradient1008)"></circle><circle r="25" cx="549.51" cy="555.46" fill="url(#SvgjsRadialGradient1008)"></circle><circle r="25" cx="521.79" cy="662.01" fill="url(#SvgjsRadialGradient1008)"></circle><circle r="25" cx="1157.15" cy="-97.18" fill="url(#SvgjsRadialGradient1008)"></circle><circle r="25" cx="1268.04" cy="61.84" fill="url(#SvgjsRadialGradient1008)"></circle><circle r="25" cx="1608.57" cy="39.74" fill="url(#SvgjsRadialGradient1008)"></circle><circle r="5" cx="251.67" cy="521.05" fill="#8b9ad9"></circle><circle r="5" cx="387.91" cy="669.03" fill="#8b9ad9"></circle><circle r="5" cx="667.17" cy="509.64" fill="#8b9ad9"></circle><circle r="5" cx="668.84" cy="696.11" fill="#8b9ad9"></circle><circle r="5" cx="822.53" cy="408.77" fill="#8b9ad9"></circle><circle r="5" cx="834.39" cy="511.4" fill="#8b9ad9"></circle><circle r="5" cx="831.31" cy="666.26" fill="#8b9ad9"></circle><circle r="5" cx="981.14" cy="242.19" fill="#8b9ad9"></circle><circle r="5" cx="974.19" cy="341.91" fill="#8b9ad9"></circle><circle r="5" cx="940.61" cy="492.44" fill="#8b9ad9"></circle><circle r="5" cx="993.91" cy="675.56" fill="#8b9ad9"></circle><circle r="5" cx="1154.7" cy="382.78" fill="#8b9ad9"></circle><circle r="5" cx="1153.88" cy="537.73" fill="#8b9ad9"></circle><circle r="5" cx="1155.41" cy="704.52" fill="#8b9ad9"></circle><circle r="5" cx="1249.17" cy="-67.15" fill="#8b9ad9"></circle><circle r="5" cx="1291.61" cy="220.15" fill="#8b9ad9"></circle><circle r="5" cx="1273.27" cy="380.69" fill="#8b9ad9"></circle><circle r="5" cx="1283.38" cy="494.3" fill="#8b9ad9"></circle><circle r="5" cx="1414.79" cy="-58.16" fill="#8b9ad9"></circle><circle r="5" cx="1430.4" cy="93.18" fill="#8b9ad9"></circle><circle r="5" cx="1434.66" cy="258.96" fill="#8b9ad9"></circle><circle r="5" cx="1399.82" cy="356.76" fill="#8b9ad9"></circle><circle r="5" cx="1438.89" cy="530.34" fill="#8b9ad9"></circle><circle r="5" cx="1537.67" cy="-57.72" fill="#8b9ad9"></circle><circle r="5" cx="1579.5" cy="208.15" fill="#8b9ad9"></circle><circle r="5" cx="1581.82" cy="382.02" fill="#8b9ad9"></circle><circle r="5" cx="1550.98" cy="548.61" fill="#8b9ad9"></circle><circle r="5" cx="1609.46" cy="655.83" fill="#8b9ad9"></circle></g><defs><mask id="SvgjsMask1006"><rect width="1440" height="560" fill="#ffffff"></rect></mask><linearGradient x1="15.28%" y1="139.29%" x2="84.72%" y2="-39.29%" gradientUnits="userSpaceOnUse" id="SvgjsLinearGradient1007"><stop stop-color="#0e2a47" offset="0"></stop><stop stop-color="rgba(56, 186, 138, 1)" offset="1"></stop></linearGradient><radialGradient id="SvgjsRadialGradient1008"><stop stop-color="#ffffff" offset="0.1"></stop><stop stop-color="#1735b3" offset="0.2"></stop><stop stop-color="rgba(23, 53, 179, 0)" offset="1"></stop></radialGradient></defs></svg>